# Blender v2.79 (sub 0) OBJ File: ''
# www.blender.org
mtllib vortex_tube.mtl
o Cross_3
v 0.882202 0.058824 0.939160
v 0.880135 -0.000000 0.115634
v 0.882202 -0.000000 0.939160
v 0.880135 0.058824 0.115634
v 0.941026 -0.000000 0.939013
v 0.938959 -0.000000 0.115486
v 0.938959 0.058824 0.115486
v 0.941026 0.058824 0.939013
vt 0.734400 0.227000
vt 0.625000 0.219000
vt 0.734400 0.219000
vt 0.625000 0.227000
vt 0.734400 0.211000
vt 0.625000 0.211000
vt 0.625000 0.203000
vt 0.734400 0.203000
vt 0.625000 0.234000
vt 0.734400 0.234000
vn -1.0000 0.0000 0.0025
vn -0.0000 -1.0000 0.0000
vn 1.0000 0.0000 -0.0025
vn 0.0000 1.0000 0.0000
usemtl defaultMaterial
s 1
f 1/1/1 2/2/1 3/3/1
f 2/2/1 1/1/1 4/4/1
f 2/2/2 5/5/2 3/3/2
f 5/5/2 2/2/2 6/6/2
f 7/7/3 5/5/3 6/6/3
f 5/5/3 7/7/3 8/8/3
f 7/9/4 1/1/4 8/10/4
f 1/1/4 7/9/4 4/4/4
o Cross_4
v -0.000148 0.058824 0.941375
v -0.002215 0.000000 0.117849
v -0.000148 0.000000 0.941375
v -0.002215 0.058824 0.117849
v 0.058676 -0.000000 0.941228
v 0.056608 -0.000000 0.117701
v 0.056608 0.058824 0.117701
v 0.058676 0.058824 0.941228
vt 0.734400 0.180000
vt 0.625000 0.172000
vt 0.734400 0.172000
vt 0.625000 0.180000
vt 0.734400 0.164000
vt 0.625000 0.164000
vt 0.625000 0.156000
vt 0.734400 0.156000
vt 0.625000 0.188000
vt 0.734400 0.188000
vn -1.0000 0.0000 0.0025
vn -0.0000 -1.0000 0.0000
vn 1.0000 0.0000 -0.0025
vn 0.0000 1.0000 0.0000
usemtl defaultMaterial
s 1
f 9/11/5 10/12/5 11/13/5
f 10/12/5 9/11/5 12/14/5
f 10/12/6 13/15/6 11/13/6
f 13/15/6 10/12/6 14/16/6
f 15/17/7 13/15/7 14/16/7
f 13/15/7 15/17/7 16/18/7
f 15/19/8 9/11/8 16/20/8
f 9/11/8 15/19/8 12/14/8
o Cross_2
v -0.000148 0.941176 0.941375
v -0.002215 0.882353 0.117849
v -0.000148 0.882353 0.941375
v -0.002215 0.941176 0.117849
v 0.058676 0.882353 0.941228
v 0.056608 0.882353 0.117701
v 0.056609 0.941176 0.117701
v 0.058676 0.941176 0.941228
vt 0.734400 0.273000
vt 0.625000 0.266000
vt 0.734400 0.266000
vt 0.625000 0.273000
vt 0.734400 0.258000
vt 0.625000 0.258000
vt 0.625000 0.250000
vt 0.734400 0.250000
vt 0.625000 0.281000
vt 0.734400 0.281000
vn -1.0000 0.0000 0.0025
vn 0.0000 -1.0000 0.0000
vn 1.0000 0.0000 -0.0025
vn 0.0000 1.0000 0.0000
usemtl defaultMaterial
s 1
f 17/21/9 18/22/9 19/23/9
f 18/22/9 17/21/9 20/24/9
f 18/22/10 21/25/10 19/23/10
f 21/25/10 18/22/10 22/26/10
f 23/27/11 21/25/11 22/26/11
f 21/25/11 23/27/11 24/28/11
f 23/29/12 17/21/12 24/30/12
f 17/21/12 23/29/12 20/24/12
o Cross_1
v 0.882202 0.941176 0.939160
v 0.880135 0.882353 0.115634
v 0.882202 0.882353 0.939160
v 0.880135 0.941176 0.115634
v 0.941026 0.882353 0.939013
v 0.938959 0.882353 0.115486
v 0.938959 0.941176 0.115486
v 0.941026 0.941176 0.939013
vt 0.734400 0.320000
vt 0.625000 0.313000
vt 0.734400 0.313000
vt 0.625000 0.320000
vt 0.734400 0.305000
vt 0.625000 0.305000
vt 0.625000 0.297000
vt 0.734400 0.297000
vt 0.625000 0.328000
vt 0.734400 0.328000
vn -1.0000 0.0000 0.0025
vn 0.0000 -1.0000 0.0000
vn 1.0000 0.0000 -0.0025
vn 0.0000 1.0000 0.0000
usemtl defaultMaterial
s 1
f 25/31/13 26/32/13 27/33/13
f 26/32/13 25/31/13 28/34/13
f 26/32/14 29/35/14 27/33/14
f 29/35/14 26/32/14 30/36/14
f 31/37/15 29/35/15 30/36/15
f 29/35/15 31/37/15 32/38/15
f 31/39/16 25/31/16 32/40/16
f 25/31/16 31/39/16 28/34/16
o Sice_2
v 0.938959 0.941176 0.115486
v 0.880135 0.882353 0.115634
v 0.938959 -0.000000 0.115486
v -0.002215 0.941176 0.117848
v 0.880135 0.058824 0.115634
v 0.056608 0.882353 0.117701
v 0.056608 0.058824 0.117701
v -0.002215 0.000000 0.117848
v -0.002363 0.000000 0.059025
v -0.002363 0.941176 0.059025
v 0.879988 0.058824 0.056810
v 0.879988 0.882353 0.056810
v 0.938811 -0.000000 0.056663
v 0.938811 0.941176 0.056663
v 0.056461 0.058824 0.058877
v 0.056461 0.882353 0.058877
vt 0.148400 0.164000
vt 0.140600 0.156000
vt 0.148400 0.039000
vt 0.023400 0.164000
vt 0.140600 0.047000
vt 0.031300 0.156000
vt 0.031300 0.047000
vt 0.023400 0.039000
vt 0.015600 0.039000
vt 0.015600 0.164000
vt 0.132800 0.047000
vt 0.132800 0.156000
vt 0.156300 0.039000
vt 0.164100 0.047000
vt 0.156300 0.164000
vt 0.281300 0.039000
vt 0.273400 0.047000
vt 0.273400 0.156000
vt 0.164100 0.156000
vt 0.281300 0.164000
vt 0.148400 0.172000
vt 0.023400 0.172000
vt 0.140600 0.055000
vt 0.031300 0.055000
vt 0.023400 0.031000
vt 0.148400 0.031000
vt 0.031300 0.148000
vt 0.140600 0.148000
vt 0.039100 0.156000
vt 0.039100 0.047000
vn 0.0025 -0.0000 1.0000
vn -1.0000 0.0000 0.0025
vn -0.0025 -0.0000 -1.0000
vn 1.0000 0.0000 -0.0025
vn 0.0000 1.0000 -0.0000
vn -0.0000 -1.0000 0.0000
usemtl defaultMaterial
s 1
f 33/41/17 34/42/17 35/43/17
f 34/42/17 33/41/17 36/44/17
f 35/43/17 34/42/17 37/45/17
f 34/42/17 36/44/17 38/46/17
f 38/46/17 36/44/17 39/47/17
f 37/45/17 40/48/17 35/43/17
f 40/48/17 37/45/17 39/47/17
f 40/48/17 39/47/17 36/44/17
f 36/44/18 41/49/18 40/48/18
f 41/49/18 36/44/18 42/50/18
f 34/42/18 43/51/18 37/45/18
f 43/51/18 34/42/18 44/52/18
f 45/53/19 43/54/19 46/55/19
f 43/54/19 45/53/19 41/56/19
f 43/54/19 41/56/19 47/57/19
f 47/57/19 41/56/19 48/58/19
f 46/55/19 44/59/19 42/60/19
f 44/59/19 46/55/19 43/54/19
f 42/60/19 44/59/19 48/58/19
f 42/60/19 48/58/19 41/56/19
f 46/55/20 35/43/20 45/53/20
f 35/43/20 46/55/20 33/41/20
f 46/61/21 36/44/21 33/41/21
f 36/44/21 46/61/21 42/62/21
f 43/63/21 39/47/21 37/45/21
f 39/47/21 43/63/21 47/64/21
f 41/65/22 35/43/22 40/48/22
f 35/43/22 41/65/22 45/66/22
f 48/67/22 34/42/22 38/46/22
f 34/42/22 48/67/22 44/68/22
f 48/69/20 39/47/20 47/70/20
f 39/47/20 48/69/20 38/46/20
o Side_1
v 0.941173 0.941176 0.997836
v 0.882350 0.882353 0.997984
v 0.941173 -0.000000 0.997836
v 0.000000 0.941176 1.000199
v 0.882350 0.058824 0.997984
v 0.058823 0.882353 1.000051
v 0.058823 0.058824 1.000051
v -0.000000 0.000000 1.000199
v -0.000148 0.000000 0.941375
v -0.000148 0.941176 0.941375
v 0.882202 0.058824 0.939160
v 0.882202 0.882353 0.939160
v 0.941026 -0.000000 0.939013
v 0.941026 0.941176 0.939013
v 0.058676 0.058824 0.941228
v 0.058676 0.882353 0.941228
vt 0.148400 0.320000
vt 0.140600 0.313000
vt 0.148400 0.195000
vt 0.023400 0.320000
vt 0.140600 0.203000
vt 0.031300 0.313000
vt 0.031300 0.203000
vt 0.023400 0.195000
vt 0.015600 0.195000
vt 0.015600 0.320000
vt 0.132800 0.203000
vt 0.132800 0.313000
vt 0.156300 0.195000
vt 0.164100 0.203000
vt 0.156300 0.320000
vt 0.281300 0.195000
vt 0.273400 0.203000
vt 0.273400 0.313000
vt 0.164100 0.313000
vt 0.281300 0.320000
vt 0.148400 0.328000
vt 0.023400 0.328000
vt 0.140600 0.211000
vt 0.031300 0.211000
vt 0.023400 0.188000
vt 0.148400 0.188000
vt 0.031300 0.305000
vt 0.140600 0.305000
vt 0.039100 0.313000
vt 0.039100 0.203000
vn 0.0025 -0.0000 1.0000
vn -1.0000 0.0000 0.0025
vn -0.0025 -0.0000 -1.0000
vn 1.0000 0.0000 -0.0025
vn 0.0000 1.0000 -0.0000
vn -0.0000 -1.0000 0.0000
usemtl defaultMaterial
s 1
f 49/71/23 50/72/23 51/73/23
f 50/72/23 49/71/23 52/74/23
f 51/73/23 50/72/23 53/75/23
f 50/72/23 52/74/23 54/76/23
f 54/76/23 52/74/23 55/77/23
f 53/75/23 56/78/23 51/73/23
f 56/78/23 53/75/23 55/77/23
f 56/78/23 55/77/23 52/74/23
f 52/74/24 57/79/24 56/78/24
f 57/79/24 52/74/24 58/80/24
f 50/72/24 59/81/24 53/75/24
f 59/81/24 50/72/24 60/82/24
f 61/83/25 59/84/25 62/85/25
f 59/84/25 61/83/25 57/86/25
f 59/84/25 57/86/25 63/87/25
f 63/87/25 57/86/25 64/88/25
f 62/85/25 60/89/25 58/90/25
f 60/89/25 62/85/25 59/84/25
f 58/90/25 60/89/25 64/88/25
f 58/90/25 64/88/25 57/86/25
f 62/85/26 51/73/26 61/83/26
f 51/73/26 62/85/26 49/71/26
f 62/91/27 52/74/27 49/71/27
f 52/74/27 62/91/27 58/92/27
f 59/93/27 55/77/27 53/75/27
f 55/77/27 59/93/27 63/94/27
f 57/95/28 51/73/28 56/78/28
f 51/73/28 57/95/28 61/96/28
f 64/97/28 50/72/28 54/76/28
f 50/72/28 64/97/28 60/98/28
f 64/99/26 55/77/26 63/100/26
f 55/77/26 64/99/26 54/76/26
o Hot_1
v 0.879988 0.300030 0.056810
v 0.638782 0.882353 0.057416
v 0.879988 0.641147 0.056810
v 0.638782 0.058824 0.057416
v 0.297666 0.058824 0.058272
v 0.297666 0.882353 0.058272
v 0.056461 0.300030 0.058877
v 0.056461 0.641147 0.058877
v 0.821755 0.324395 0.292251
v 0.821755 0.616781 0.292251
v 0.115875 0.324395 0.294023
v 0.115875 0.616781 0.294023
v 0.322622 0.823529 0.293504
v 0.615007 0.823529 0.292770
v 0.322622 0.117647 0.293504
v 0.615007 0.117647 0.292770
vt 0.375100 0.251000
vt 0.407100 0.328000
vt 0.375100 0.296000
vt 0.407100 0.219000
vt 0.452300 0.219000
vt 0.452300 0.328000
vt 0.484300 0.251000
vt 0.484300 0.296000
vt 0.849300 0.297000
vt 0.795400 0.328000
vt 0.791200 0.297000
vt 0.845200 0.328000
vt 0.795400 0.250000
vt 0.849300 0.281000
vt 0.791300 0.281000
vt 0.845200 0.250000
vt 0.906300 0.297000
vt 0.949700 0.328000
vt 0.909600 0.328000
vt 0.953100 0.297000
vt 0.760200 0.250000
vt 0.750200 0.281000
vt 0.760100 0.328000
vt 0.750100 0.297000
vt 0.890400 0.281000
vt 0.880400 0.250000
vt 0.909800 0.281000
vt 0.953100 0.250000
vt 0.949800 0.281000
vt 0.906500 0.250000
vt 0.890400 0.297000
vt 0.880400 0.328000
vn -0.0025 0.0000 -1.0000
vn 0.9707 0.0000 0.2401
vn -0.9695 0.0000 0.2450
vn 0.0006 0.9701 0.2425
vn -0.6854 -0.6860 0.2443
vn 0.6866 -0.6860 0.2408
vn -0.6854 0.6860 0.2443
vn 0.0006 -0.9701 0.2425
vn 0.6866 0.6860 0.2408
usemtl hotMaterial
s 1
f 65/101/29 66/102/29 67/103/29
f 66/102/29 65/101/29 68/104/29
f 66/102/29 68/104/29 69/105/29
f 66/102/29 69/105/29 70/106/29
f 70/106/29 69/105/29 71/107/29
f 70/106/29 71/107/29 72/108/29
f 67/109/30 73/110/30 65/111/30
f 73/110/30 67/109/30 74/112/30
f 75/113/31 72/114/31 71/115/31
f 72/114/31 75/113/31 76/116/31
f 66/117/32 77/118/32 78/119/32
f 77/118/32 66/117/32 70/120/32
f 79/121/33 71/115/33 69/122/33
f 71/115/33 79/121/33 75/113/33
f 65/111/34 80/123/34 68/124/34
f 80/123/34 65/111/34 73/110/34
f 70/125/35 76/116/35 77/126/35
f 76/116/35 70/125/35 72/114/35
f 79/127/36 68/128/36 80/129/36
f 68/128/36 79/127/36 69/130/36
f 74/112/37 66/131/37 78/132/37
f 66/131/37 74/112/37 67/109/37
o Hot_2
v 0.776899 0.342669 -0.001755
v 0.595995 0.779412 -0.001300
v 0.776899 0.598507 -0.001755
v 0.595995 0.161765 -0.001300
v 0.340158 0.161765 -0.000658
v 0.340158 0.779412 -0.000658
v 0.159254 0.342669 -0.000204
v 0.159254 0.598507 -0.000204
v 0.358580 0.735294 0.058119
v 0.577869 0.735294 0.057569
v 0.732929 0.360943 0.057179
v 0.732929 0.580233 0.057179
v 0.203519 0.580233 0.058508
v 0.577869 0.205882 0.057569
v 0.358580 0.205882 0.058119
v 0.203519 0.360943 0.058508
vt 0.375000 0.137000
vt 0.402300 0.203000
vt 0.375000 0.176000
vt 0.402300 0.110000
vt 0.440900 0.110000
vt 0.440900 0.203000
vt 0.468200 0.137000
vt 0.468200 0.176000
vt 0.550600 0.203000
vt 0.514700 0.196000
vt 0.547900 0.196000
vt 0.512000 0.203000
vt 0.578000 0.176000
vt 0.571300 0.140000
vt 0.578000 0.137000
vt 0.571300 0.173000
vt 0.491300 0.173000
vt 0.484600 0.176000
vt 0.512000 0.109000
vt 0.547900 0.116000
vt 0.514700 0.116000
vt 0.550600 0.109000
vt 0.491300 0.140000
vt 0.484600 0.137000
vn -0.0025 0.0000 -1.0000
vn 0.0015 0.8000 0.6000
vn 0.8015 0.0000 0.5980
vn -0.5642 0.5657 0.6014
vn 0.5672 0.5657 0.5986
vn 0.0015 -0.8000 0.6000
vn -0.7985 0.0000 0.6020
vn -0.5642 -0.5657 0.6014
vn 0.5672 -0.5657 0.5986
usemtl hotMaterial
s 1
f 81/133/38 82/134/38 83/135/38
f 82/134/38 81/133/38 84/136/38
f 82/134/38 84/136/38 85/137/38
f 82/134/38 85/137/38 86/138/38
f 86/138/38 85/137/38 87/139/38
f 86/138/38 87/139/38 88/140/38
f 82/141/39 89/142/39 90/143/39
f 89/142/39 82/141/39 86/144/39
f 83/145/40 91/146/40 81/147/40
f 91/146/40 83/145/40 92/148/40
f 86/144/41 93/149/41 89/142/41
f 93/149/41 86/144/41 88/150/41
f 82/141/42 92/148/42 83/145/42
f 92/148/42 82/141/42 90/143/42
f 85/151/43 94/152/43 95/153/43
f 94/152/43 85/151/43 84/154/43
f 96/155/44 88/150/44 87/156/44
f 88/150/44 96/155/44 93/149/44
f 96/155/45 85/151/45 95/153/45
f 85/151/45 96/155/45 87/156/45
f 91/146/46 84/154/46 81/147/46
f 84/154/46 91/146/46 94/152/46
o Cold
v 0.058823 0.300030 1.000051
v 0.300029 0.882353 0.999445
v 0.058823 0.641147 1.000051
v 0.300029 0.058824 0.999445
v 0.641145 0.058824 0.998589
v 0.641145 0.882353 0.998589
v 0.882350 0.300030 0.997984
v 0.882350 0.641147 0.997984
v 0.117056 0.324395 0.764610
v 0.117056 0.616781 0.764610
v 0.822936 0.324395 0.762838
v 0.822936 0.616781 0.762838
v 0.616189 0.823529 0.763357
v 0.323804 0.823529 0.764091
v 0.616189 0.117647 0.763357
v 0.323804 0.117647 0.764091
vt 0.500600 0.251000
vt 0.532400 0.328000
vt 0.500600 0.296000
vt 0.532400 0.219000
vt 0.577300 0.219000
vt 0.577300 0.328000
vt 0.609100 0.251000
vt 0.609100 0.296000
vt 0.849300 0.204000
vt 0.795400 0.235000
vt 0.791200 0.204000
vt 0.845200 0.235000
vt 0.795600 0.157000
vt 0.849500 0.187000
vt 0.791500 0.187000
vt 0.845400 0.157000
vt 0.906500 0.203000
vt 0.949800 0.234000
vt 0.909900 0.234000
vt 0.953100 0.203000
vt 0.760400 0.157000
vt 0.750400 0.187000
vt 0.760100 0.235000
vt 0.750100 0.204000
vt 0.890600 0.187000
vt 0.880500 0.157000
vt 0.909900 0.187000
vt 0.952600 0.157000
vt 0.949300 0.187000
vt 0.906600 0.157000
vt 0.890500 0.204000
vt 0.880400 0.235000
vn 0.0025 -0.0000 1.0000
vn -0.9707 0.0000 -0.2401
vn 0.9695 0.0000 -0.2450
vn -0.0006 0.9701 -0.2425
vn 0.6854 -0.6860 -0.2443
vn -0.6866 -0.6860 -0.2408
vn 0.6854 0.6860 -0.2443
vn -0.0006 -0.9701 -0.2425
vn -0.6866 0.6860 -0.2408
usemtl coldMaterial
s 1
f 97/157/47 98/158/47 99/159/47
f 98/158/47 97/157/47 100/160/47
f 98/158/47 100/160/47 101/161/47
f 98/158/47 101/161/47 102/162/47
f 102/162/47 101/161/47 103/163/47
f 102/162/47 103/163/47 104/164/47
f 99/165/48 105/166/48 97/167/48
f 105/166/48 99/165/48 106/168/48
f 107/169/49 104/170/49 103/171/49
f 104/170/49 107/169/49 108/172/49
f 98/173/50 109/174/50 110/175/50
f 109/174/50 98/173/50 102/176/50
f 111/177/51 103/171/51 101/178/51
f 103/171/51 111/177/51 107/169/51
f 97/167/52 112/179/52 100/180/52
f 112/179/52 97/167/52 105/166/52
f 102/181/53 108/172/53 109/182/53
f 108/172/53 102/181/53 104/170/53
f 111/183/54 100/184/54 112/185/54
f 100/184/54 111/183/54 101/186/54
f 106/168/55 98/187/55 110/188/55
f 98/187/55 106/168/55 99/165/55
o Center
v 0.322622 0.117647 0.293504
v 0.616189 0.117647 0.763357
v 0.323804 0.117647 0.764091
v 0.615007 0.117647 0.292770
v 0.821755 0.616781 0.292251
v 0.822936 0.324395 0.762838
v 0.821755 0.324395 0.292251
v 0.822936 0.616781 0.762838
v 0.615007 0.823529 0.292770
v 0.323804 0.823529 0.764091
v 0.616189 0.823529 0.763357
v 0.322622 0.823529 0.293504
v 0.117056 0.616781 0.764610
v 0.115875 0.324395 0.294023
v 0.117056 0.324395 0.764610
v 0.115875 0.616781 0.294023
vt 0.359400 0.211000
vt 0.296900 0.250000
vt 0.296900 0.211000
vt 0.359400 0.250000
vt 0.359400 0.328000
vt 0.296900 0.289000
vt 0.359400 0.289000
vt 0.296900 0.328000
vt 0.359400 0.055000
vt 0.296900 0.094000
vt 0.296900 0.055000
vt 0.359400 0.094000
vt 0.296900 0.133000
vt 0.359400 0.172000
vt 0.296900 0.172000
vt 0.359400 0.133000
vt 0.296900 0.016000
vt 0.359400 0.016000
vn -0.0000 -1.0000 0.0000
vn 1.0000 0.0000 -0.0025
vn 0.0000 1.0000 0.0000
vn -1.0000 0.0000 0.0025
vn -0.7071 0.7071 0.0018
vn -0.7071 -0.7071 0.0018
vn 0.7071 0.7071 -0.0018
vn 0.7071 -0.7071 -0.0018
usemtl defaultMaterial
s 1
f 113/189/56 114/190/56 115/191/56
f 114/190/56 113/189/56 116/192/56
f 117/193/57 118/194/57 119/195/57
f 118/194/57 117/193/57 120/196/57
f 121/197/58 122/198/58 123/199/58
f 122/198/58 121/197/58 124/200/58
f 125/201/59 126/202/59 127/203/59
f 126/202/59 125/201/59 128/204/59
f 124/200/60 125/201/60 122/198/60
f 125/201/60 124/200/60 128/204/60
f 127/203/61 113/189/61 115/191/61
f 113/189/61 127/203/61 126/202/61
f 120/205/62 121/197/62 123/199/62
f 121/197/62 120/205/62 117/206/62
f 119/195/63 114/190/63 116/192/63
f 114/190/63 119/195/63 118/194/63
